<?xml version="1.0" encoding="utf-8"?>
<!-- Generator: Adobe Illustrator 24.0.1, SVG Export Plug-In . SVG Version: 6.00 Build 0)  -->
<svg version="1.1" id="Camada_1" focusable="false" xmlns="http://www.w3.org/2000/svg" xmlns:xlink="http://www.w3.org/1999/xlink"
	 x="0px" y="0px" viewBox="0 0 640 512" style="enable-background:new 0 0 640 512;" xml:space="preserve">
<path style="fill:#0B3084;" d="M394.5,70.1L103.1,202.5c-80.5,36.6-116,131.4-79.5,211.9s131.4,116,211.9,79.5
	c39.1-17.8,69.5-50.6,84.2-91L403,365c82.4,31.9,175.1-9.1,206.9-91.6s-9.1-175.1-91.6-206.9C478.3,51.1,433.6,52.3,394.5,70.1z
	 M254.4,322.7c2.7,6,0.1,13.1-6,15.9l-47.3,21.5l21.5,47.3c2.7,6,0.1,13.1-6,15.9l-21.8,9.9c-6,2.7-13.1,0.1-15.9-6L157.4,380
	l-47.3,21.5c-6,2.7-13.1,0.1-15.9-6l-9.9-21.8c-2.7-6-0.1-13.1,6-15.9l0,0l47.3-21.5L116,288.9c-2.7-6-0.1-13.1,6-15.9l21.8-9.9
	c6-2.7,13.1-0.1,15.9,6l21.5,47.3l47.3-21.5c6-2.7,13.1-0.1,15.9,6l0,0L254.4,322.7z M482.5,302.5c-20.1,9.1-43.8,0.2-53-19.9
	c-9.1-20.1-0.2-43.8,19.9-53c20.1-9.1,43.8-0.2,53,19.9C511.5,269.7,502.6,293.4,482.5,302.5z M501,188.7
	c-20.1,9.1-43.8,0.2-53-19.9s-0.2-43.8,19.9-53c20.1-9.1,43.8-0.2,53,19.9C530.1,155.8,521.2,179.5,501,188.7z"/>
<path style="fill:#0066FF;" d="M394.1,35.9L102.7,168.3c-80.5,36.6-116,131.4-79.5,211.9s131.4,116,211.9,79.5
	c39.1-17.8,69.5-50.6,84.2-91l83.3-37.9c82.4,31.9,175.1-9.1,206.9-91.6s-9.1-175.1-91.6-206.9C477.8,16.8,433.2,18.1,394.1,35.9z
	 M254,288.5c2.7,6,0.1,13.1-6,15.9l-47.3,21.5l21.5,47.3c2.7,6,0.1,13.1-6,15.9l-21.8,9.9c-6,2.7-13.1,0.1-15.9-6L157,345.7
	l-47.3,21.5c-6,2.7-13.1,0.1-15.9-6l-9.9-21.8c-2.7-6-0.1-13.1,6-15.9l0,0l47.3-21.5l-21.5-47.3c-2.7-6-0.1-13.1,6-15.9l21.8-9.9
	c6-2.7,13.1-0.1,15.9,6l21.5,47.3l47.3-21.5c6-2.7,13.1-0.1,15.9,6l0,0L254,288.5z M482.1,268.3c-20.1,9.1-43.8,0.2-53-19.9
	s-0.2-43.8,19.9-53c20.1-9.1,43.8-0.2,53,19.9S502.2,259.1,482.1,268.3z M500.6,154.4c-20.1,9.1-43.8,0.2-53-19.9
	c-9.1-20.1-0.2-43.8,19.9-53c20.1-9.1,43.8-0.2,53,19.9C529.6,121.6,520.7,145.3,500.6,154.4z"/>
<ellipse style="fill:#A80449;" cx="465.3" cy="236.5" rx="39.8" ry="35.4"/>
<ellipse style="fill:#FF0066;" cx="466" cy="223.1" rx="39.8" ry="35.4"/>
<ellipse style="fill:#A80449;" cx="483.7" cy="124.7" rx="39.8" ry="35.4"/>
<ellipse style="fill:#FF0066;" cx="484.4" cy="111.3" rx="39.8" ry="35.4"/>
<rect x="57" y="219" style="fill:#0066FF;" width="214" height="192"/>
<path style="fill:#025F66;" d="M168,274.9l-23.4-42.1l-45.9,25.6l23.4,42.1l35.7,10.2L168,274.9z M117,318.4l-42.1,23.4l25.6,45.9
	l42.1-23.4l10.2-35.7L117,318.4z M160.5,369.3l23.4,42.1l45.9-25.6l-23.4-42.1l-35.7-10.2L160.5,369.3z M185.9,280l-10.2,35.7
	l35.7,10.2l42.1-23.4l-25.6-45.9L185.9,280z M229.8,385.8l3.2-12.4l-28.5-5.9L229.8,385.8z M253.5,302.4l3.2-12.4l-26.9-6v10.4
	L253.5,302.4z M74.9,341.8l3.2-12.4l23.7-13.2l4.1,8.3L74.9,341.8z M98.6,258.4l3.2-12.4l15.2-8.5l4,8.3L98.6,258.4z"/>
<path style="fill:#00D4FF;" d="M171.2,262.5l-23.4-42.1L101.9,246l23.4,42.1l35.7,10.2L171.2,262.5z M120.2,306l-42.1,23.4
	l25.6,45.9l42.1-23.4l10.2-35.7L120.2,306z M163.7,356.9l23.4,42.1l45.9-25.6l-23.4-42.1l-35.7-10.2L163.7,356.9z M189.1,267.6
	l-10.2,35.7l35.7,10.2l42.1-23.4l-25.6-45.9L189.1,267.6z"/>
</svg>
